# xmcd
#
# Track frame offsets:
# 150
# 20287
# 36657
# 55300
# 72802
# 90265
# 109725
# 129410
# 151000
# 169005
#
# Disc length: 2530 seconds
#
#
# Revision: 2
# Processed by: cddbd v1.4PL0 Copyright (c) Steve Scherf et al.
# Submitted via: FreeRIP 2.11 
#
DISCID=7509e00a
DTITLE=Peaches and Bobo - Simple Emotions
DYEAR=1993
DGENRE=
TTITLE0=A place to turn
TTITLE1=Within my heart
TTITLE2=Simple Emotions
TTITLE3=Reach Out
TTITLE4=Turn, Turn
TTITLE5=Don't know what to do
TTITLE6=Love will keep us together
TTITLE7=The 1st. stone
TTITLE8=Because of you
TTITLE9=I'll stay if you want me to
EXTD=
EXTT0=
EXTT1=
EXTT2=
EXTT3=
EXTT4=
EXTT5=
EXTT6=
EXTT7=
EXTT8=
EXTT9=
PLAYORDER=
